<svg width="100" height="100" viewBox="0 0 100 100" fill="none" xmlns="http://www.w3.org/2000/svg">
  <rect width="100" height="100" rx="12" fill="#FF6B00"/>
  <g transform="translate(10, 10) scale(0.8)">
    <!-- QR Code Style Pattern -->
    <rect x="5" y="5" width="20" height="20" fill="white" rx="3"/>
    <rect x="10" y="10" width="10" height="10" fill="#FF6B00" rx="1"/>

    <rect x="30" y="5" width="20" height="8" fill="white" rx="2"/>
    <rect x="55" y="5" width="20" height="8" fill="white" rx="2"/>
    <rect x="80" y="5" width="10" height="8" fill="white" rx="2"/>

    <rect x="30" y="17" width="8" height="8" fill="white" rx="2"/>
    <rect x="42" y="17" width="8" height="8" fill="white" rx="2"/>
    <rect x="55" y="17" width="8" height="8" fill="white" rx="2"/>
    <rect x="67" y="17" width="8" height="8" fill="white" rx="2"/>
    <rect x="80" y="17" width="15" height="8" fill="white" rx="2"/>

    <rect x="5" y="30" width="8" height="8" fill="white" rx="2"/>
    <rect x="17" y="30" width="8" height="20" fill="white" rx="2"/>
    <rect x="30" y="30" width="20" height="8" fill="white" rx="2"/>
    <rect x="55" y="30" width="20" height="8" fill="white" rx="2"/>
    <rect x="80" y="30" width="15" height="8" fill="white" rx="2"/>

    <rect x="5" y="42" width="8" height="15" fill="white" rx="2"/>
    <rect x="30" y="42" width="8" height="15" fill="white" rx="2"/>
    <rect x="42" y="42" width="8" height="8" fill="white" rx="2"/>
    <rect x="55" y="42" width="8" height="15" fill="white" rx="2"/>
    <rect x="67" y="42" width="8" height="15" fill="white" rx="2"/>
    <rect x="80" y="42" width="8" height="15" fill="white" rx="2"/>

    <rect x="5" y="62" width="20" height="8" fill="white" rx="2"/>
    <rect x="30" y="62" width="20" height="8" fill="white" rx="2"/>
    <rect x="67" y="62" width="8" height="8" fill="white" rx="2"/>
    <rect x="80" y="62" width="8" height="8" fill="white" rx="2"/>

    <rect x="5" y="74" width="8" height="15" fill="white" rx="2"/>
    <rect x="17" y="74" width="8" height="15" fill="white" rx="2"/>
    <rect x="42" y="74" width="8" height="15" fill="white" rx="2"/>
    <rect x="67" y="74" width="8" height="15" fill="white" rx="2"/>
    <rect x="80" y="74" width="15" height="15" fill="white" rx="2"/>
  </g>
</svg>
